<svg xmlns="http://www.w3.org/2000/svg" xmlns:xlink="http://www.w3.org/1999/xlink" width="2000" zoomAndPan="magnify" viewBox="0 0 1500 1499.999933" height="2000" preserveAspectRatio="xMidYMid meet" version="1.0"><defs><clipPath id="1de2e348bf"><path d="M 200.109375 43.878906 L 1299.609375 43.878906 L 1299.609375 1456.128906 L 200.109375 1456.128906 Z M 200.109375 43.878906 " clip-rule="nonzero"/></clipPath></defs><rect x="-150" width="1800" fill="#ffffff" y="-149.999993" height="1799.99992" fill-opacity="1"/><rect x="-150" width="1800" fill="#ffffff" y="-149.999993" height="1799.99992" fill-opacity="1"/><path fill="#f9ae42" d="M 501.246094 770.605469 C 505.058594 768.394531 508.761719 770.058594 512.890625 767.304688 C 520.808594 762.054688 530.21875 759.042969 538.046875 753.707031 C 543.871094 749.746094 549.695312 749.257812 554.800781 752.011719 C 561.339844 755.511719 564.753906 761.855469 563.261719 770.003906 C 562.71875 772.929688 563.175781 776.027344 563.175781 778.351562 C 555.976562 788.164062 543.957031 789.714844 536.46875 798.410156 C 530.417969 805.410156 521.296875 809.769531 513.492188 815.308594 C 517.164062 820.386719 521.613281 818.207031 525.425781 818.808594 C 531.164062 819.726562 538.792969 827.160156 536.816406 828.9375 C 530.933594 834.273438 534.460938 836.683594 538.019531 840.386719 C 539.082031 841.476562 539.222656 845.175781 538.25 846.210938 C 529.042969 855.851562 519.519531 865.148438 510.050781 874.53125 C 496.398438 876.222656 492.296875 889.535156 480.535156 897.082031 C 485.785156 898.144531 490.773438 899.722656 491.035156 899.148438 C 495.59375 888.960938 506.207031 895.761719 512.746094 891.085938 C 518.945312 886.636719 526.660156 884.601562 533.058594 880.554688 C 540.054688 876.109375 546.941406 873.210938 555.34375 874.445312 C 557.179688 874.703125 559.535156 874.386719 561.023438 873.410156 C 563.894531 871.515625 565.957031 866.238281 569.800781 871.949219 C 572.84375 876.507812 580.847656 872.347656 582.539062 881.761719 C 584.03125 890.082031 590.828125 897.542969 585.867188 909.9375 C 581.476562 914.46875 576.34375 922.789062 565.386719 925.402344 C 556.578125 927.496094 558.328125 938.972656 552.332031 944.511719 C 546.453125 949.933594 536.269531 948.699219 532.972656 957.507812 C 532.28125 959.316406 531.9375 961.582031 532.425781 963.363281 C 532.800781 964.738281 534.722656 965.65625 535.984375 966.804688 C 540.371094 957.480469 551.472656 964.539062 557.125 958.082031 C 562.6875 951.769531 573.128906 958.253906 578.609375 949.5625 C 580.472656 946.605469 585.636719 949.476562 588.878906 952.601562 C 594.472656 958.054688 596.394531 965.113281 599.03125 971.941406 C 595.273438 973.261719 591.71875 974.523438 587.703125 975.929688 C 590.167969 978.625 592.148438 980.808594 593.4375 982.242188 C 591.546875 985.914062 589.679688 989.300781 588.074219 992.773438 C 587.730469 993.519531 588.046875 994.808594 588.476562 995.640625 C 589.824219 998.28125 591.257812 998.511719 592.835938 996.675781 C 594.183594 995.125 595.847656 992.371094 597.167969 992.515625 C 605.972656 993.375 613.117188 991.28125 618.367188 983.621094 C 622.667969 977.363281 629.210938 980.03125 635.03125 980.378906 C 637.441406 987.636719 646.476562 983.648438 649.917969 989.101562 C 649.917969 997.390625 649.917969 1005.625 649.917969 1013.863281 C 644.898438 1019.859375 636.753906 1023.675781 636.726562 1033.171875 C 636.726562 1033.890625 635.347656 1035.292969 634.628906 1035.265625 C 619.542969 1034.777344 617.476562 1055.265625 602.589844 1055.265625 C 601.871094 1055.265625 601.125 1058.566406 600.410156 1061.691406 C 600.410156 1062.152344 600.78125 1060.859375 600.292969 1060.402344 C 599.835938 1059.941406 598.285156 1059.941406 597.683594 1060.371094 C 595.648438 1061.808594 593.09375 1063.585938 596.824219 1065.765625 C 597.3125 1066.054688 599.175781 1064.042969 600.378906 1061.691406 C 604.484375 1060.316406 608.640625 1059.941406 612.714844 1060.402344 C 619.285156 1061.148438 624.675781 1059.597656 628.664062 1054.117188 C 634.773438 1055.839844 637.125 1049.296875 641.574219 1048.207031 C 646.421875 1047 651.785156 1047.746094 656.917969 1047.976562 C 662.167969 1048.234375 665.984375 1046.339844 670.574219 1043.414062 C 677.746094 1038.824219 687.957031 1041.636719 690.96875 1049.296875 C 694.066406 1057.1875 702.785156 1063.414062 699.144531 1073.800781 C 696.246094 1081.347656 688.359375 1085.164062 683.738281 1091.703125 C 678.835938 1098.621094 669.3125 1097.613281 664.175781 1104.558594 C 659.328125 1111.101562 652.757812 1116.351562 646.9375 1122.148438 C 644.785156 1120.195312 642.605469 1118.214844 640.394531 1116.207031 C 638.1875 1120.511719 636.207031 1124.871094 633.828125 1129.003906 C 631.390625 1133.25 624.933594 1134.601562 625.136719 1142.230469 C 625.507812 1142.976562 625.195312 1140.96875 625.164062 1140.96875 C 622.296875 1140.824219 619.339844 1140.480469 616.558594 1141.027344 C 615.296875 1141.257812 614.320312 1143.234375 613.433594 1144.554688 C 613.316406 1144.726562 614.578125 1146.21875 615.382812 1146.449219 C 619.167969 1147.625 622.785156 1147.570312 625.164062 1142.230469 C 628.980469 1140.023438 633.570312 1142.921875 636.609375 1138.675781 C 639.335938 1134.886719 643.007812 1134.3125 647.308594 1134.570312 C 651.355469 1134.828125 658.066406 1135.917969 659.097656 1134.113281 C 664.261719 1124.929688 675.132812 1131.84375 680.527344 1125.589844 C 684.65625 1120.796875 689.792969 1122.636719 694.640625 1122.289062 C 698.570312 1122.003906 702.070312 1122.175781 705.855469 1119.363281 C 716.441406 1111.503906 728.660156 1108.433594 741.96875 1109.78125 C 747.046875 1110.296875 752.238281 1109.867188 757.402344 1109.867188 C 764.230469 1119.535156 768.992188 1129.75 767.757812 1142.117188 C 767.328125 1146.421875 773.695312 1149.863281 776.59375 1146.765625 C 781.355469 1141.628906 786.488281 1141.027344 792.800781 1140.511719 C 797.21875 1140.136719 801.347656 1135.117188 805.707031 1134.945312 C 816.636719 1134.515625 825.214844 1123.753906 837.148438 1128.257812 C 838.238281 1128.660156 840.214844 1126.136719 841.964844 1125.390625 C 852.003906 1121.199219 852.035156 1121.257812 860.839844 1125.675781 C 864.742188 1127.628906 868.671875 1129.578125 873.117188 1131.816406 C 870.507812 1133.023438 868.816406 1133.910156 867.066406 1134.628906 C 865.316406 1135.347656 862.21875 1135.574219 861.929688 1136.636719 C 860.8125 1140.625 863.96875 1140.367188 866.808594 1141 C 871.453125 1142.03125 874.378906 1146.394531 872.917969 1148.945312 C 872.457031 1149.777344 872.230469 1150.867188 871.539062 1151.441406 C 865.488281 1156.75 861.242188 1163.003906 858.117188 1170.582031 C 856.796875 1173.824219 847.503906 1169.976562 848.105469 1178.242188 C 848.707031 1186.589844 840.53125 1182.488281 837.433594 1185.617188 C 834.824219 1188.253906 832.183594 1190.894531 829.429688 1193.679688 C 833.875 1197.582031 837.089844 1197.550781 841.019531 1194.566406 C 849.453125 1188.167969 860.554688 1186.476562 868.585938 1179.246094 C 884.878906 1180.222656 895.808594 1164.382812 912.332031 1165.300781 C 915.457031 1165.472656 918.699219 1161.199219 922.113281 1159.476562 C 929.054688 1156.003906 935.480469 1150.582031 944.171875 1153.164062 C 947.414062 1145.703125 957.109375 1148.6875 961.523438 1142.460938 C 962.703125 1140.769531 967.03125 1141.085938 969.929688 1140.914062 C 975.839844 1140.539062 981.488281 1141.601562 986.769531 1136.207031 C 989.148438 1133.769531 996.464844 1134.570312 1000.765625 1136.09375 C 1004.152344 1137.269531 1006.503906 1140.683594 1011.0625 1141.199219 C 1015.566406 1141.714844 1018.09375 1149.320312 1023.886719 1146.910156 C 1028.246094 1145.101562 1031.085938 1141.3125 1036.707031 1140.308594 C 1043.019531 1139.191406 1044.882812 1128 1053.261719 1128.71875 C 1060.117188 1129.292969 1064.046875 1124.902344 1069.324219 1122.550781 C 1079.105469 1118.160156 1088.113281 1113.167969 1096.859375 1106.710938 C 1103.230469 1102.035156 1110.714844 1095.75 1120.667969 1097.386719 C 1126.722656 1098.390625 1129.246094 1089.4375 1136.648438 1091.101562 C 1142.5 1092.394531 1148.839844 1091.359375 1154.632812 1091.359375 C 1157.875 1094.601562 1160.800781 1097.527344 1163.382812 1100.113281 C 1161.460938 1103.527344 1158.160156 1106.824219 1158.132812 1110.125 C 1158.132812 1113.308594 1161.546875 1116.523438 1162.867188 1118.734375 C 1157.789062 1124.214844 1153.828125 1132.046875 1147.863281 1134.167969 C 1137.851562 1137.699219 1129.445312 1144.414062 1119.265625 1147.136719 C 1116.078125 1148 1113.671875 1149.433594 1114.386719 1154.714844 C 1114.386719 1155.171875 1114.761719 1153.882812 1114.273438 1153.421875 C 1113.8125 1152.964844 1112.265625 1152.964844 1111.664062 1153.394531 C 1109.625 1154.828125 1107.074219 1156.605469 1110.800781 1158.789062 C 1111.289062 1159.074219 1113.152344 1157.066406 1114.359375 1154.714844 C 1125.660156 1153.335938 1136.960938 1153.335938 1148.550781 1153.335938 C 1151.246094 1156.175781 1154.058594 1159.132812 1157.703125 1162.976562 C 1157.703125 1170.09375 1158.304688 1178.296875 1157.414062 1186.332031 C 1157.042969 1189.777344 1152.425781 1192.644531 1151.734375 1196.175781 C 1149.957031 1205.296875 1141.410156 1208.3125 1136.53125 1214.566406 C 1132.773438 1219.386719 1127.925781 1223.347656 1123.539062 1227.679688 C 1115.707031 1225.726562 1113.066406 1232.699219 1108.738281 1236.515625 C 1104.117188 1240.589844 1100.046875 1245.238281 1095.542969 1249.484375 C 1094.191406 1250.777344 1092.328125 1251.578125 1090.609375 1252.441406 C 1083.808594 1255.855469 1076.4375 1258.464844 1070.296875 1262.796875 C 1064.503906 1266.871094 1060.03125 1272.839844 1054.867188 1277.832031 C 1049.214844 1283.285156 1044.683594 1290.226562 1035.675781 1291.289062 C 1034.644531 1291.40625 1034.558594 1296.65625 1033.351562 1299.238281 C 1032.550781 1300.988281 1030.570312 1302.191406 1029.105469 1303.65625 C 1027.644531 1305.121094 1026.152344 1307.875 1024.746094 1307.816406 C 1010.402344 1307.242188 1008.710938 1325.921875 995.515625 1326.8125 C 986.394531 1335.621094 974.921875 1332.492188 961.726562 1333.152344 C 958.484375 1328.734375 954.269531 1323.023438 947.785156 1314.214844 C 947.785156 1312.867188 947.785156 1306.871094 947.785156 1299.179688 C 953.0625 1289.023438 967.003906 1283.800781 973.6875 1268.222656 C 974.289062 1266.355469 972.914062 1267.1875 971.964844 1268.363281 C 971.507812 1268.910156 971.535156 1270.515625 971.996094 1270.976562 C 972.453125 1271.433594 974.058594 1271.464844 974.578125 1271.003906 C 975.753906 1270.027344 976.671875 1268.707031 977.386719 1267.359375 C 977.503906 1267.128906 976.183594 1266.125 973.6875 1268.25 C 969.816406 1271.089844 967.75 1271.148438 965.683594 1271.089844 C 959.429688 1270.859375 956.933594 1279.839844 949.648438 1277.375 C 943.625 1275.335938 941.101562 1281.5625 936.742188 1283.457031 C 931.492188 1285.722656 925.410156 1286.699219 920.90625 1289.914062 C 913.507812 1295.191406 907.109375 1301.878906 899.882812 1308.332031 C 894.402344 1308.332031 887.632812 1306.785156 882.238281 1308.820312 C 878.023438 1310.429688 874.179688 1313.441406 869.445312 1315.277344 C 857.683594 1319.808594 858 1320.730469 848.734375 1320.671875 C 841.449219 1313.324219 835.023438 1306.839844 830.464844 1302.25 C 820.796875 1302.480469 815.605469 1302.136719 809.609375 1305.722656 C 798.851562 1312.207031 786.117188 1315.449219 777.796875 1325.894531 C 768.992188 1326.496094 763.023438 1336.480469 752.839844 1333.238281 C 750.375 1332.464844 747.132812 1333.984375 744.292969 1334.671875 C 741.050781 1335.476562 724.902344 1332.347656 725.1875 1330.714844 C 726.566406 1322.824219 717.988281 1319.550781 717.53125 1311.917969 C 717.070312 1304.574219 724.5 1302.105469 726.019531 1293.039062 C 726.625 1291.175781 725.246094 1292.007812 724.300781 1293.183594 C 723.839844 1293.730469 724.214844 1294.960938 724.214844 1295.878906 C 725.132812 1295.878906 726.367188 1296.253906 726.910156 1295.792969 C 728.085938 1294.820312 729.003906 1293.5 729.722656 1292.152344 C 729.835938 1291.921875 728.515625 1290.917969 726.019531 1293.039062 C 714.289062 1293.613281 707.691406 1301.273438 700.320312 1305.121094 C 695.042969 1307.875 694.265625 1305.148438 691.226562 1303.371094 C 685.949219 1300.300781 683.910156 1301.046875 681.15625 1308.535156 C 679.980469 1311.746094 678.890625 1313.269531 675.878906 1314.589844 C 668.910156 1317.628906 662.367188 1321.761719 655.253906 1324.402344 C 647.597656 1327.242188 641.945312 1332.347656 635.75 1337.285156 C 631.5625 1340.640625 625.105469 1341.414062 620.71875 1345.433594 C 609.902344 1343.480469 602.734375 1351.746094 593.898438 1355.21875 C 585.609375 1358.460938 584.117188 1358.945312 574.910156 1354.097656 C 573.214844 1353.207031 571.550781 1352.117188 569.746094 1351.714844 C 558.472656 1349.164062 557.898438 1340.871094 556.519531 1331.257812 C 555.289062 1322.738281 563.921875 1319.839844 563.808594 1312.121094 C 563.75 1308.820312 570.117188 1303.109375 574.105469 1302.59375 C 582.652344 1301.476562 585.035156 1293.957031 590.683594 1290.113281 C 598.773438 1293.097656 601.296875 1280.757812 609.675781 1283.167969 C 611.109375 1283.601562 614.121094 1279.324219 616.101562 1277 C 619.570312 1272.925781 623.355469 1270.085938 629.152344 1271.0625 C 631.046875 1271.378906 633.855469 1271.464844 634.917969 1270.371094 C 641.171875 1263.917969 647.710938 1257.976562 656.515625 1255.25 C 664.289062 1252.839844 669.511719 1245.957031 676.109375 1242.800781 C 684.570312 1238.726562 690.9375 1233.101562 697.191406 1226.816406 C 698.425781 1225.554688 698.714844 1223.375 699.429688 1221.625 C 709.699219 1223.691406 715.550781 1214.308594 724.15625 1212.011719 C 724.386719 1211.953125 724.183594 1210.203125 727.769531 1206.160156 C 730.382812 1203.058594 729.234375 1202.714844 728.515625 1203.144531 C 726.96875 1204.007812 724.585938 1205.125 724.386719 1206.417969 C 723.46875 1212.15625 728.230469 1209.058594 729.949219 1209 C 732.015625 1208.941406 734.023438 1206.847656 736.0625 1205.640625 C 734.484375 1204.78125 732.933594 1203.921875 727.769531 1206.160156 C 713.628906 1208.769531 702.902344 1207.9375 699.429688 1221.652344 C 686.722656 1219.671875 675.820312 1224.921875 667.214844 1232.871094 C 661.164062 1238.4375 653.847656 1241.910156 647.28125 1244.835938 C 640.65625 1247.792969 634.832031 1255.394531 625.796875 1252.785156 C 624.246094 1252.355469 621.292969 1253.1875 620.488281 1254.390625 C 615.238281 1262.339844 606.175781 1264.75 598.746094 1269.339844 C 592.378906 1273.300781 583.800781 1274.074219 578.0625 1278.609375 C 571.839844 1283.515625 563.203125 1284.203125 558.386719 1291.230469 C 556.433594 1294.042969 537.359375 1300.613281 532.195312 1302.308594 C 527.722656 1303.769531 523.761719 1307.183594 519.230469 1308.132812 C 514.355469 1309.164062 509.074219 1308.363281 504.773438 1308.363281 C 499.035156 1302.824219 493.875 1297.832031 488.910156 1293.070312 C 488.910156 1288.59375 488.910156 1284.488281 488.910156 1279.699219 C 492.324219 1278.519531 495.910156 1277.289062 499.867188 1275.9375 C 499.464844 1274.535156 499.410156 1272.78125 498.546875 1271.777344 C 496.597656 1269.539062 494.648438 1268.078125 497.945312 1265.066406 C 501.703125 1261.621094 504.945312 1258.636719 510.738281 1258.234375 C 513.894531 1258.035156 515.875 1253.15625 520.578125 1252.324219 C 526.488281 1251.292969 531.046875 1246.929688 532.226562 1240.273438 C 536.5 1240.417969 538.5625 1238.378906 538.421875 1234.078125 C 548.976562 1234.5625 559.734375 1235.394531 564.984375 1218.839844 C 565.585938 1216.976562 564.207031 1217.808594 563.261719 1218.984375 C 562.804688 1219.53125 563.175781 1220.761719 563.175781 1221.679688 C 564.09375 1221.679688 565.328125 1222.054688 565.871094 1221.59375 C 567.046875 1220.621094 567.964844 1219.300781 568.683594 1217.953125 C 568.796875 1217.722656 567.480469 1216.71875 564.984375 1218.839844 C 552.90625 1219.617188 547.054688 1228.996094 538.449219 1231.292969 C 538.21875 1231.351562 538.421875 1233.101562 538.421875 1234.078125 C 534.148438 1233.933594 532.082031 1235.96875 532.226562 1240.273438 C 525.511719 1241.191406 519.117188 1239.785156 512.03125 1244.003906 C 504.226562 1248.652344 495.765625 1255.367188 485.09375 1253.328125 C 477.78125 1261.878906 466.019531 1262.222656 457.300781 1268.421875 C 449.554688 1273.902344 440.089844 1276.628906 431.914062 1281.648438 C 424.371094 1286.296875 415.363281 1284.660156 408.164062 1282.910156 C 401.304688 1281.277344 393.1875 1278.609375 387.96875 1272.382812 C 386.132812 1270.199219 383.980469 1267.53125 383.78125 1264.921875 C 383.207031 1257.746094 383.578125 1250.515625 383.578125 1243.316406 C 390.148438 1236.746094 396.6875 1230.175781 403.285156 1223.632812 C 407.503906 1219.441406 411.261719 1215.453125 418.085938 1214.277344 C 421.328125 1213.703125 427.152344 1209.316406 426.921875 1203.058594 C 429.703125 1203.058594 432.859375 1203.863281 435.183594 1202.800781 C 437.078125 1201.96875 437.964844 1198.929688 441.09375 1194.023438 C 441.695312 1192.15625 440.316406 1192.988281 439.371094 1194.164062 C 438.914062 1194.710938 438.941406 1196.316406 439.398438 1196.777344 C 439.859375 1197.234375 441.464844 1197.265625 442.011719 1196.804688 C 443.1875 1195.828125 444.105469 1194.507812 444.820312 1193.160156 C 444.9375 1192.929688 443.617188 1191.925781 441.121094 1194.050781 C 436.53125 1196.890625 433.375 1196.117188 431.054688 1197.148438 C 429.160156 1197.980469 428.269531 1201.023438 426.949219 1203.089844 C 420.296875 1204.007812 412.925781 1200.5625 407.101562 1207.105469 C 405.550781 1208.855469 401.738281 1209.085938 398.925781 1209.171875 C 390.777344 1209.429688 382.605469 1209.257812 374.3125 1209.257812 C 364.90625 1200.246094 358.796875 1189.601562 358.710938 1175.113281 C 366.914062 1166.964844 375.402344 1158.242188 384.238281 1149.921875 C 388.398438 1146.019531 391.179688 1140.625 398.898438 1140.539062 C 402.570312 1140.511719 405.636719 1133.078125 409.910156 1130.695312 C 414.847656 1127.941406 420.066406 1124.5 425.027344 1123.121094 C 432.746094 1120.96875 437.191406 1117.441406 439.34375 1110.183594 C 449.898438 1110.667969 460.65625 1111.5 464.125 1097.785156 C 468.402344 1097.929688 470.464844 1095.894531 470.324219 1091.589844 C 473.105469 1091.589844 476.261719 1092.363281 478.582031 1091.332031 C 480.476562 1090.5 481.367188 1087.457031 484.492188 1082.550781 C 485.09375 1080.6875 483.71875 1081.519531 482.773438 1082.695312 C 482.3125 1083.238281 482.339844 1084.847656 482.800781 1085.304688 C 483.257812 1085.765625 484.867188 1085.792969 485.410156 1085.335938 C 486.585938 1084.359375 487.503906 1083.039062 488.222656 1081.691406 C 488.335938 1081.460938 487.015625 1080.457031 484.523438 1082.578125 C 479.933594 1085.421875 476.777344 1084.644531 474.453125 1085.679688 C 472.558594 1086.511719 471.671875 1089.550781 470.351562 1091.617188 C 466.078125 1091.472656 464.011719 1093.511719 464.15625 1097.816406 C 453.597656 1097.328125 442.84375 1096.496094 439.371094 1110.210938 C 437.621094 1109.492188 435.730469 1108.949219 434.121094 1107.972656 C 432.515625 1106.996094 431.167969 1105.589844 429.703125 1104.386719 C 428.988281 1105.101562 427.867188 1105.707031 427.582031 1106.59375 C 424.398438 1115.976562 423.136719 1117.238281 416.652344 1116.40625 C 414.703125 1116.148438 411.691406 1116.667969 410.914062 1115.574219 C 404.605469 1106.566406 401.421875 1114.484375 397.722656 1117.984375 C 396.515625 1119.132812 396.859375 1121.746094 395.914062 1123.351562 C 391.8125 1130.410156 383.523438 1131.011719 377.410156 1135 C 371.300781 1131.011719 362.007812 1130.753906 359.253906 1123.238281 C 357.734375 1119.078125 355.265625 1116.523438 352.828125 1113.511719 C 358.738281 1110.269531 357.390625 1102.835938 361.289062 1098.648438 C 368.890625 1090.5 376.953125 1082.808594 383.78125 1076.007812 C 383.320312 1065.449219 374.886719 1063.183594 371.246094 1057.328125 C 370.527344 1049.984375 370.640625 1043.128906 377.871094 1038.335938 C 381.082031 1036.210938 383.378906 1033.226562 383.835938 1028.464844 C 384.613281 1020.515625 391.582031 1024.476562 398.8125 1025.335938 C 400.675781 1025.941406 399.84375 1024.5625 398.667969 1023.617188 C 398.121094 1023.15625 396.515625 1023.1875 396.058594 1023.644531 C 395.597656 1024.105469 395.570312 1025.710938 396.027344 1026.226562 C 397.003906 1027.402344 398.324219 1028.320312 399.671875 1029.039062 C 399.902344 1029.152344 400.90625 1027.832031 398.78125 1025.335938 C 396.773438 1019.742188 393.761719 1014.980469 398.121094 1012.167969 C 404.664062 1007.921875 406.929688 997.59375 417.226562 998.769531 C 422.359375 993.777344 427.839844 989.042969 432.371094 983.5625 C 433.691406 981.984375 432.316406 978.167969 432.199219 975.183594 C 420.667969 978.222656 412.492188 987.953125 400.074219 986.601562 C 397.234375 986.289062 396.457031 990.046875 395.683594 993.203125 C 394.222656 999.171875 390.234375 1004.191406 383.636719 1004.765625 C 377.441406 1005.28125 374.859375 1013.601562 367.800781 1011.394531 C 359.886719 1020.632812 346 1019.714844 338 1028.808594 C 325.777344 1028.808594 313.585938 1028.808594 299.53125 1028.808594 C 293.363281 1025.710938 289.75 1019.628906 290.46875 1010.332031 C 291.183594 1001.207031 290.609375 991.96875 290.609375 983.042969 C 298.441406 977.996094 301.28125 966.832031 312.554688 967.550781 C 319.210938 961.8125 323.425781 952.628906 335.558594 954.78125 C 331.113281 948.15625 326.726562 949.820312 322.910156 949.101562 C 320.269531 948.613281 315.652344 946.546875 315.769531 945.6875 C 316.914062 937.195312 304.207031 932.890625 311.75 918.832031 C 320.875 909.707031 333.636719 896.9375 346.519531 884.085938 C 336.878906 877.972656 341.125 868.992188 340.207031 861.300781 C 341.210938 859.667969 341.898438 857.628906 343.304688 856.453125 C 351.625 849.539062 356.730469 838.949219 368.980469 836.367188 C 373.339844 835.449219 369.894531 826.8125 375.519531 823.914062 C 381.484375 820.84375 387.25 817.144531 392.585938 813.042969 C 397.40625 809.339844 401.105469 801.851562 406.039062 801.132812 C 420.957031 798.980469 412.808594 790.03125 413.640625 783.113281 C 403.945312 786.070312 396.515625 791.664062 387.710938 794.621094 C 379.277344 797.460938 378.703125 798.292969 371.160156 794.390625 C 371.160156 792.324219 371.160156 790.257812 371.160156 788.195312 C 376.265625 788.195312 381.945312 789.570312 386.304688 787.792969 C 390.550781 786.070312 393.648438 782.425781 399.011719 781.25 C 403.027344 780.390625 406.066406 775.453125 411.949219 775.570312 C 420.8125 775.710938 436.617188 769.054688 443.042969 762.398438 C 447.605469 757.664062 450.472656 757.464844 454.117188 762.628906 C 454.230469 762.800781 455.78125 762.425781 456.152344 761.910156 C 459.25 757.953125 456.496094 748.253906 466.394531 751.09375 C 473.59375 753.160156 476.605469 746.1875 482.140625 744.582031 C 489.457031 742.457031 495.363281 736.203125 504.226562 738.269531 C 505.863281 738.640625 508.246094 733.589844 510.855469 732.703125 C 513.207031 731.898438 516.332031 733.363281 521.09375 734.164062 C 517.136719 738.152344 514.324219 740.621094 511.945312 743.460938 C 510.136719 745.640625 507.15625 748.769531 507.671875 750.632812 C 509.996094 758.410156 502.277344 762.601562 501.246094 770.605469 C 501.246094 771.066406 501.589844 769.773438 501.128906 769.3125 C 500.671875 768.855469 499.121094 768.855469 498.519531 769.285156 C 496.484375 770.71875 493.929688 772.5 497.660156 774.679688 C 498.175781 774.964844 500.011719 772.957031 501.246094 770.605469 Z M 452.652344 961.210938 C 451.675781 961.210938 450.53125 960.867188 449.8125 961.269531 C 448.265625 962.128906 445.882812 963.246094 445.683594 964.539062 C 444.765625 970.277344 449.527344 967.179688 451.246094 967.121094 C 453.3125 967.0625 455.320312 964.96875 457.355469 963.765625 C 455.78125 962.902344 454.230469 962.042969 445.511719 970.164062 C 445.511719 969.246094 445.882812 967.953125 445.394531 967.492188 C 444.9375 967.035156 443.386719 967.035156 442.785156 967.464844 C 440.75 968.898438 438.195312 970.679688 441.925781 972.859375 C 442.441406 973.148438 444.304688 971.109375 452.652344 961.210938 Z M 470.722656 1180.96875 C 459.222656 1173.621094 457.242188 1183.550781 451.277344 1187.367188 C 462.777344 1194.710938 464.730469 1184.78125 470.722656 1180.96875 Z M 816.320312 1196.058594 C 814.027344 1197.578125 812.449219 1198.613281 810.898438 1199.644531 C 812.476562 1200.679688 814.140625 1202.6875 815.574219 1202.542969 C 818.214844 1202.257812 820.710938 1200.679688 823.292969 1199.644531 C 820.824219 1198.382812 818.386719 1197.121094 816.320312 1196.058594 Z M 483.574219 920.066406 C 484.292969 921.355469 485.039062 922.703125 485.785156 924.054688 C 486.472656 923.363281 487.820312 922.53125 487.734375 922.015625 C 487.417969 920.554688 486.472656 919.234375 485.785156 917.855469 C 485.066406 918.542969 484.378906 919.234375 483.574219 920.066406 Z M 587.042969 1068.691406 C 586.210938 1067.859375 585.523438 1067.171875 584.832031 1066.484375 C 584.144531 1067.859375 583.226562 1069.179688 582.910156 1070.644531 C 582.796875 1071.160156 584.171875 1071.992188 584.832031 1072.679688 C 585.578125 1071.332031 586.324219 1069.984375 587.042969 1068.691406 Z M 749.859375 1192.558594 C 750.574219 1193.851562 751.320312 1195.199219 752.066406 1196.546875 C 752.753906 1195.859375 754.105469 1195.027344 754.019531 1194.511719 C 753.703125 1193.046875 752.753906 1191.726562 752.097656 1190.347656 C 751.351562 1191.039062 750.660156 1191.726562 749.859375 1192.558594 Z M 749.859375 1192.558594 " fill-opacity="1" fill-rule="nonzero"/><path fill="#f9ae42" d="M 526 423.796875 C 533.890625 422.078125 542.609375 424.746094 548.203125 416.222656 C 554.339844 416.109375 561.140625 417.570312 566.417969 415.417969 C 570.75 413.640625 573.992188 410.113281 579.613281 409.679688 C 585.0625 409.28125 590.140625 404.917969 595.648438 404.058594 C 606.234375 402.394531 615.382812 393.726562 627.085938 397.574219 C 627.71875 397.773438 629.210938 396.941406 629.523438 396.253906 C 633.886719 386.640625 645.53125 395.679688 650.867188 387.644531 C 654.308594 382.480469 660.621094 386.753906 665.179688 385.089844 C 668.738281 383.800781 669.914062 378.664062 675.046875 378.953125 C 682.21875 379.324219 689.417969 378.921875 696.589844 378.835938 C 701.207031 368.507812 714.71875 377.144531 719.882812 367.933594 C 725.878906 367.503906 731.902344 366.726562 737.898438 366.8125 C 741.882812 366.871094 748.710938 375.078125 748.941406 379.582031 C 749.199219 384.660156 748.996094 389.796875 748.996094 394.675781 C 737.121094 401.933594 722.78125 404.402344 714.660156 416.910156 C 701.351562 412.953125 691.398438 420.097656 680.871094 425.460938 C 680.871094 430.597656 680.757812 435.734375 680.898438 440.871094 C 681.070312 447.152344 672.351562 449.679688 674.074219 456.824219 C 674.128906 457.109375 668.535156 458 666.414062 459.664062 C 657.234375 466.894531 645.960938 470.195312 636.09375 476.21875 C 622.613281 484.425781 622.296875 483.9375 633.398438 495.671875 C 634.804688 497.136719 636.152344 498.65625 637.46875 500.0625 C 641.3125 510.105469 631.734375 516.445312 630.558594 525.140625 C 630.414062 526.203125 627.257812 526.71875 625.652344 527.722656 C 617.417969 532.742188 607.867188 535.097656 600.667969 542.414062 C 596.136719 547.003906 589.507812 550.359375 583.226562 552.082031 C 578.953125 553.257812 576.199219 555.265625 573.214844 557.90625 C 568.683594 561.925781 567.765625 563.875 572.328125 570.558594 C 577.863281 578.679688 577.460938 585.164062 570.433594 591.878906 C 567.621094 594.546875 565.355469 597.933594 563.289062 601.261719 C 558.242188 609.324219 558.328125 609.4375 551.070312 605.335938 C 543.039062 600.800781 543.066406 600.746094 538.449219 608.433594 C 532.195312 618.851562 524.105469 627.199219 513.320312 633.167969 C 507.355469 636.46875 502.738281 643.382812 496.597656 644.84375 C 489.65625 646.511719 487.074219 651.933594 482.199219 655.117188 C 476.546875 658.820312 468.886719 659.449219 465.160156 666.105469 C 464.871094 666.625 465.015625 667.714844 465.390625 668.230469 C 465.933594 669.003906 466.996094 670.179688 467.625 670.039062 C 470.4375 669.464844 474.050781 669.320312 475.746094 667.511719 C 480.878906 662.003906 486.789062 664.128906 492.640625 664.585938 C 498.519531 673.738281 501.820312 665.992188 505.71875 662.550781 C 506.324219 662.03125 506.582031 661.113281 507.011719 660.398438 C 501.417969 654.027344 501.417969 654.027344 507.328125 651.558594 C 521.871094 645.535156 521.871094 645.535156 535.636719 645.621094 C 540.714844 649.550781 537.472656 655.144531 538.449219 659.851562 C 528.667969 672.792969 516.90625 683.496094 501.359375 688.429688 C 494.734375 690.523438 491.234375 695.316406 487.589844 699.675781 C 479.675781 709.175781 469.003906 714.050781 458.648438 719.675781 C 456.125 721.023438 453.3125 721.941406 451.019531 723.578125 C 443.847656 728.65625 439.574219 736.519531 429.703125 739.53125 C 421.816406 741.941406 416.796875 753.589844 408.878906 756.085938 C 399.84375 758.957031 397.605469 771.609375 386.503906 769.398438 C 382.03125 776.058594 372.910156 778.839844 371.214844 787.792969 C 368.433594 787.792969 365.277344 786.988281 362.953125 788.050781 C 361.0625 788.882812 360.171875 791.925781 358.851562 795.367188 C 358.851562 795.824219 359.226562 794.535156 358.738281 794.074219 C 358.277344 793.617188 356.730469 793.617188 356.128906 794.046875 C 354.089844 795.480469 351.539062 797.261719 355.265625 799.441406 C 355.753906 799.726562 357.621094 797.71875 358.824219 795.367188 C 362.953125 793.988281 367.085938 793.988281 371.214844 793.988281 C 371.214844 797.03125 371.214844 800.101562 371.214844 803.230469 C 358.679688 809.597656 346.117188 816.027344 333.523438 822.367188 C 324.6875 826.8125 318.40625 825.78125 312.640625 819.039062 C 308.167969 813.816406 308.082031 805.09375 312.210938 800.300781 C 321.363281 789.773438 333.667969 782.082031 342.015625 766.386719 C 342.617188 764.523438 341.238281 765.355469 340.292969 766.53125 C 339.835938 767.074219 339.863281 768.683594 340.324219 769.140625 C 340.78125 769.601562 342.386719 769.628906 342.902344 769.171875 C 344.078125 768.195312 344.996094 766.875 345.714844 765.527344 C 345.828125 765.296875 344.511719 764.292969 342.015625 766.417969 C 336.421875 770.089844 332.375 767.734375 328.617188 771.324219 C 324.402344 775.3125 321.792969 781.910156 314.390625 781.652344 C 304.152344 791.003906 292.015625 787.589844 280.515625 787.277344 C 278.820312 783.203125 277.503906 779.644531 275.839844 776.199219 C 275.0625 774.59375 273.714844 773.246094 272.65625 771.808594 C 283.554688 766.675781 273.257812 751.210938 285.621094 745.929688 C 290.695312 743.777344 293.9375 737.867188 300.707031 737.292969 C 303.804688 737.035156 304.007812 728.570312 300.996094 727.050781 C 297.609375 725.328125 293.535156 724.667969 290.582031 722.457031 C 287.542969 720.191406 284.101562 717.753906 284.386719 712.703125 C 284.816406 705.585938 284.5 698.441406 284.5 691.613281 C 292.417969 686.390625 295.429688 676.035156 306.589844 675.546875 C 309.628906 675.402344 313.1875 670.523438 315.050781 667.054688 C 316.054688 665.160156 314.304688 659.304688 313.328125 659.191406 C 303.058594 657.929688 298.527344 649.320312 290.554688 642.378906 C 290.898438 636.554688 288.890625 627.972656 292.246094 623.152344 C 297.238281 615.953125 298.5 606.453125 306.816406 600.972656 C 313.300781 596.726562 317.746094 589.667969 326.265625 587.863281 C 329.308594 587.230469 328.246094 577.875 324.976562 577.847656 C 312.324219 577.761719 315.050781 565.253906 309.429688 559.65625 C 308.738281 558.96875 309.628906 555.582031 310.777344 554.292969 C 317.171875 546.917969 317.949219 535.585938 328.445312 531.164062 C 321.992188 526.574219 314.390625 525.886719 309.832031 518.683594 C 309.832031 510.59375 309.832031 501.582031 309.832031 493.117188 C 311.808594 491.140625 313.015625 489.246094 314.765625 488.296875 C 324.832031 482.730469 335.042969 477.453125 345.140625 471.972656 C 352.714844 467.871094 362.265625 467.066406 367.832031 459.691406 C 372.105469 454.039062 377.382812 452.578125 383.867188 453.378906 C 384.839844 453.496094 386.246094 453.695312 386.820312 453.148438 C 398.667969 442.132812 414.902344 441.128906 428.785156 434.816406 C 429.648438 434.414062 431.082031 434.097656 431.253906 433.496094 C 431.941406 430.769531 433.546875 427.15625 432.402344 425.347656 C 431.226562 423.480469 427.039062 422.164062 424.65625 422.734375 C 422.046875 423.339844 419.980469 426.378906 417.371094 428.617188 C 411.632812 428.617188 405.464844 428.617188 399.296875 428.617188 C 393.101562 428.617188 385.328125 430.914062 381.140625 428.015625 C 376.179688 424.574219 370.414062 423.394531 365.363281 419.839844 C 365.363281 413.925781 365.363281 407.816406 365.363281 401.128906 C 371.820312 394.703125 376.78125 385.722656 387.9375 383.570312 C 391.066406 382.96875 394.136719 378.234375 395.65625 374.734375 C 396.488281 372.839844 393.761719 367.101562 393.046875 367.1875 C 383.292969 368.132812 372.5625 362.339844 363.871094 370.945312 C 363.214844 371.605469 362.410156 372.09375 361.691406 372.667969 C 357.359375 365.207031 346.890625 367.042969 342.214844 359.640625 C 340.09375 356.253906 339.289062 351.722656 342.558594 349.023438 C 345.570312 346.527344 348.753906 342.511719 352.027344 342.339844 C 358.453125 341.996094 360.832031 333.042969 368.003906 335.769531 C 372.507812 328.25 381.484375 331.894531 386.589844 328.679688 C 392.128906 325.152344 397.75 325.066406 402.882812 322.886719 C 410.285156 319.757812 416.882812 315.828125 425.316406 317.117188 C 427.152344 317.40625 430.335938 317.148438 430.882812 316.113281 C 435.296875 307.621094 444.191406 313.273438 450.015625 309.660156 C 454.515625 306.847656 459.019531 304.035156 463.582031 301.195312 C 462.550781 300.160156 461.832031 298.8125 461.085938 298.8125 C 446.65625 298.699219 432.230469 298.726562 417.628906 298.726562 C 414.816406 295.800781 411.976562 292.84375 408.734375 289.429688 C 415.648438 283.03125 420.324219 273.820312 431.453125 272.300781 C 434.066406 271.957031 436.160156 268.398438 438.828125 267.882812 C 444.648438 266.707031 451.992188 268.398438 456.265625 265.414062 C 461.027344 262.113281 465.1875 261.3125 470.265625 261.511719 C 476.546875 261.769531 478.898438 253.191406 486.328125 255.054688 C 491.175781 256.289062 496.65625 254.742188 501.734375 255.429688 C 508.503906 256.320312 513.292969 253.449219 517.769531 249.117188 C 523.589844 253.304688 528.46875 236.835938 534.605469 248.34375 C 536.070312 247.394531 537.617188 246.535156 538.964844 245.472656 C 543.554688 241.859375 549.464844 241.082031 554.371094 237.351562 C 558.300781 234.367188 566.273438 236.75 572.46875 236.75 C 573.53125 235.113281 575.308594 233.566406 575.480469 231.84375 C 577.261719 215.890625 579.871094 211.757812 595.160156 212.503906 C 604.253906 212.964844 608.382812 203.640625 617.449219 205.476562 C 624.390625 206.882812 631.820312 205.761719 639.046875 205.761719 L 671.578125 187.199219 C 673.785156 185.105469 675.996094 183.007812 678.089844 181 C 685.519531 181 692.890625 181.863281 699.917969 180.742188 C 706.429688 179.710938 711.105469 173.109375 719.109375 174.402344 C 721.976562 174.859375 725.363281 169.609375 728.917969 168.863281 C 733.851562 167.832031 739.1875 168.75 744.351562 168.578125 C 751.234375 168.320312 758.953125 170.902344 763.742188 163.152344 C 765.921875 164.847656 768.128906 166.570312 770.3125 168.261719 C 777.109375 156.09375 792.398438 168.40625 799.855469 158.046875 C 800.402344 157.273438 801.347656 156.382812 802.179688 156.296875 C 811.074219 155.207031 820.96875 159.28125 828.800781 153.457031 C 836.429688 147.746094 844.460938 151.101562 852.234375 150.15625 C 858.117188 149.4375 863.765625 150.703125 869.074219 145.335938 C 871.742188 142.640625 878.710938 144.476562 883.675781 143.785156 C 893.3125 142.496094 904.269531 147.917969 912.359375 138.363281 C 919.472656 138.132812 926.757812 136.84375 933.671875 137.933594 C 941.675781 139.195312 946.351562 132.738281 952.863281 131.707031 C 959.917969 130.585938 967.289062 131.191406 974.492188 131.535156 C 981.460938 131.878906 988.691406 129.667969 995.601562 133.257812 C 997.066406 138.335938 998.527344 143.296875 989.121094 143.84375 C 988.660156 143.84375 989.953125 144.21875 990.410156 143.730469 C 990.871094 143.269531 990.871094 141.71875 990.441406 141.117188 C 989.003906 139.082031 987.226562 136.527344 985.046875 140.257812 C 984.761719 140.746094 986.769531 142.609375 989.121094 143.816406 C 990.496094 144.847656 990.785156 145.996094 990.410156 146.886719 C 990.039062 147.773438 989.0625 148.980469 988.289062 149.007812 C 980.171875 149.46875 971.910156 150.757812 963.964844 149.726562 C 955.15625 148.578125 950.824219 158.191406 941.675781 156.554688 C 932.667969 154.949219 923.171875 156.152344 913.878906 156.269531 C 913.078125 156.269531 912.273438 157.273438 911.183594 157.988281 C 911.726562 159.335938 912.300781 162.007812 912.875 162.007812 C 934.503906 162.292969 956.132812 162.4375 977.789062 162.207031 C 980.3125 162.179688 982.722656 159.335938 985.390625 158.304688 C 988.03125 157.300781 992.792969 155.636719 993.453125 156.554688 C 998.585938 163.8125 1005.902344 162.351562 1012.898438 162.378906 C 1019.011719 162.40625 1025.148438 162.378906 1030.742188 162.378906 C 1034.902344 166.539062 1038 171.246094 1042.359375 173.511719 C 1046.605469 175.722656 1051.453125 176.179688 1055.097656 180.253906 C 1059.371094 185.019531 1060.085938 188.433594 1055.699219 193.109375 C 1053.605469 195.347656 1050.507812 199.621094 1049.214844 199.164062 C 1038.085938 195.203125 1031.34375 208.402344 1020.671875 205.847656 C 1016.773438 204.929688 1012.355469 205.132812 1008.339844 205.820312 C 999.703125 207.28125 990.582031 202.320312 982.207031 210.296875 C 975.925781 216.265625 964.191406 207.542969 957.023438 216.894531 C 955.386719 219.019531 949.363281 217.699219 945.375 218.101562 C 942.449219 218.386719 938.921875 218.015625 936.710938 219.507812 C 929.457031 224.382812 922.167969 229.460938 913.335938 230.292969 C 905.160156 231.070312 896.785156 231.125 888.609375 230.265625 C 880.921875 229.460938 877.996094 235.144531 872.515625 239.933594 C 875.328125 241.054688 877.738281 243.003906 879.746094 242.660156 C 888.378906 241.253906 898.1875 246.992188 905.789062 238.128906 C 907.222656 236.433594 911.414062 237.007812 914.339844 236.664062 C 928.996094 234.914062 944.773438 241.054688 958.199219 230.46875 C 967.492188 230.46875 976.757812 230.582031 986.050781 230.4375 C 992.933594 230.324219 1000.679688 232.675781 1005.382812 224.871094 C 1007.621094 226.59375 1009.859375 228.34375 1012.125 230.09375 C 1022.882812 218.1875 1037.082031 227.195312 1048.84375 223.839844 C 1052.371094 227.367188 1055.296875 230.292969 1058.394531 233.394531 C 1058.394531 239.332031 1058.394531 245.472656 1058.394531 251.8125 C 1053.890625 256.75 1050.191406 263.550781 1041.328125 261.453125 C 1034.644531 259.875 1032.378906 269.71875 1025.261719 267.851562 C 1024.375 267.625 1021.390625 270.695312 1021.621094 271.699219 C 1024.949219 286.1875 1011.722656 290.347656 1006.300781 298.582031 C 997.957031 298.582031 990.46875 299.84375 983.585938 298.324219 C 970.820312 295.511719 961.726562 307.25 948.902344 305.152344 C 937.859375 303.347656 926.070312 303.488281 915 305.269531 C 908.746094 306.273438 903.523438 312.039062 895.808594 311.179688 C 889.039062 310.433594 881.378906 308.882812 876.332031 316.457031 C 875.640625 317.492188 872.542969 317.117188 870.566406 317.117188 C 860.238281 317.175781 849.941406 317.148438 839.613281 317.148438 C 831.667969 326.128906 821.027344 323.085938 811.246094 323.203125 C 804.875 323.289062 802.640625 331.320312 795.179688 329.859375 C 789.703125 328.796875 784.195312 329.601562 778.113281 333.359375 C 772.058594 337.089844 762.507812 335.222656 754.476562 335.710938 C 749.398438 336 744.292969 336.054688 739.214844 336.226562 C 734.484375 346.355469 720.800781 337.402344 715.894531 347.160156 C 706.6875 350.058594 698.511719 356.398438 687.871094 354.535156 C 685.574219 354.132812 682.621094 356.570312 680.238281 358.121094 C 675.390625 361.304688 669.769531 362.652344 664.777344 366.066406 C 660.589844 368.9375 652.84375 366.671875 646.90625 366.671875 C 641 370.714844 638.558594 380.585938 630.15625 378.722656 C 621.636719 376.800781 618.480469 386.410156 610.964844 385.347656 C 606.976562 384.777344 603.535156 385.695312 599.835938 388.476562 C 594.558594 392.40625 588.304688 396.167969 581.992188 397.226562 C 575.828125 398.261719 569.972656 398.089844 566.074219 403.855469 C 550.152344 402.363281 539.625 414.730469 526.113281 419.464844 C 525.742188 419.550781 526.027344 421.386719 526 423.796875 C 526.375 424.542969 526.058594 422.535156 526.027344 422.535156 C 523.160156 422.390625 520.207031 422.046875 517.421875 422.59375 C 516.160156 422.824219 515.1875 424.800781 514.296875 426.121094 C 514.183594 426.292969 515.445312 427.785156 516.246094 428.015625 C 520.003906 429.191406 523.621094 429.132812 526 423.796875 Z M 644.210938 255.199219 C 641.054688 255.199219 638.042969 254.828125 635.203125 255.371094 C 633.914062 255.601562 632.851562 257.554688 631.90625 258.902344 C 631.820312 259.015625 633.140625 260.738281 633.886719 260.824219 C 637.730469 261.195312 641.601562 261.570312 645.417969 261.253906 C 646.964844 261.140625 649.460938 259.417969 649.691406 258.125 C 650.664062 252.214844 645.730469 256.664062 657.035156 249.03125 C 656.058594 249.03125 654.910156 248.6875 654.195312 249.089844 C 652.644531 249.949219 650.265625 251.070312 650.0625 252.359375 C 649.144531 258.097656 653.90625 255 655.628906 254.941406 C 657.695312 254.882812 659.703125 252.789062 661.738281 251.585938 C 660.160156 250.722656 658.582031 249.863281 644.210938 255.199219 Z M 538.390625 278.210938 C 546.511719 278.929688 555.257812 282.230469 565.527344 276.261719 C 554.511719 273.191406 546.394531 272.128906 532.742188 279.960938 C 529.585938 279.960938 526.574219 279.589844 523.734375 280.132812 C 522.445312 280.363281 521.382812 282.316406 520.4375 283.664062 C 520.347656 283.777344 521.667969 285.5 522.414062 285.585938 C 526.257812 285.957031 530.132812 286.332031 533.945312 286.015625 C 535.496094 285.902344 537.992188 284.179688 538.21875 282.886719 C 539.195312 276.976562 534.234375 281.425781 538.390625 278.210938 Z M 717.015625 245.933594 C 724.5 250.09375 730.125 250.324219 735.628906 246.792969 C 737.324219 245.730469 738.613281 243.09375 740.191406 243.003906 C 747.390625 242.605469 754.761719 243.695312 761.792969 242.574219 C 768.304688 241.542969 773.035156 234.457031 780.980469 236.40625 C 782.703125 236.835938 787.578125 236.035156 783.421875 230.4375 C 778.054688 230.4375 770.511719 228.171875 766.324219 230.953125 C 759.007812 235.773438 751.867188 237.667969 743.804688 236.519531 C 733.25 235 727.140625 243.234375 717.015625 245.933594 Z M 1000.851562 237.496094 C 995.746094 238.53125 993.59375 243.0625 990.640625 246.390625 C 989.664062 247.480469 989.75 251.183594 990.726562 252.015625 C 992.761719 253.679688 995.6875 254.742188 998.328125 255 C 999.734375 255.144531 1002.6875 252.933594 1002.601562 251.957031 C 1002.257812 247.195312 1004.78125 242 1000.851562 237.496094 Z M 678.347656 260.796875 C 680.757812 258.386719 683.335938 256.578125 684.800781 254.109375 C 686.148438 251.84375 687.753906 248.085938 686.78125 246.335938 C 683.394531 240.222656 681.53125 246.621094 678.835938 247.796875 C 675.535156 249.261719 671.949219 250.09375 667.332031 251.585938 C 671.175781 254.796875 674.128906 257.265625 678.347656 260.796875 Z M 479.816406 298.554688 C 483.863281 298.554688 487.933594 298.667969 491.953125 298.46875 C 492.695312 298.441406 494.101562 296.890625 493.960938 296.460938 C 493.472656 294.996094 492.496094 292.617188 491.578125 292.558594 C 485.527344 292.214844 479.445312 292.300781 473.363281 292.472656 C 472.617188 292.5 471.210938 294.050781 471.355469 294.480469 C 471.84375 295.945312 472.617188 297.953125 473.792969 298.410156 C 475.570312 299.042969 477.78125 298.554688 479.816406 298.554688 Z M 890.5 168.921875 C 893.199219 167.800781 894.945312 167.171875 896.554688 166.308594 C 896.8125 166.167969 896.753906 164.789062 896.410156 164.300781 C 894.117188 161.203125 887.519531 161.175781 886.457031 164.503906 C 886.140625 165.535156 889.238281 167.601562 890.5 168.921875 Z M 803.699219 209.75 C 803.644531 209.035156 803.871094 208.144531 803.5 207.65625 C 801.203125 204.558594 795.039062 204.644531 793.316406 207.800781 C 793.03125 208.316406 793.117188 209.378906 793.460938 209.867188 C 795.78125 212.964844 801.894531 212.851562 803.699219 209.75 Z M 586.957031 271.667969 C 586.898438 270.953125 587.128906 270.0625 586.753906 269.574219 C 584.460938 266.476562 578.292969 266.5625 576.570312 269.71875 C 576.285156 270.234375 576.371094 271.296875 576.714844 271.785156 C 579.039062 274.882812 585.148438 274.769531 586.957031 271.667969 Z M 511.515625 619.625 C 514.613281 617.816406 514.726562 611.707031 511.628906 609.382812 C 511.140625 609.039062 510.109375 608.953125 509.5625 609.238281 C 506.410156 610.960938 506.324219 617.101562 509.421875 619.425781 C 509.90625 619.769531 510.824219 619.566406 511.515625 619.625 Z M 414.070312 720.449219 C 415.589844 722.746094 416.625 724.324219 417.65625 725.875 C 418.691406 724.296875 420.699219 722.632812 420.554688 721.195312 C 420.265625 718.558594 418.691406 716.0625 417.65625 713.476562 C 416.394531 715.945312 415.132812 718.386719 414.070312 720.449219 Z M 471.183594 684.726562 C 471.902344 686.019531 472.644531 687.367188 473.390625 688.714844 C 474.082031 688.027344 475.429688 687.195312 475.34375 686.679688 C 475.027344 685.214844 474.082031 683.894531 473.390625 682.519531 C 472.703125 683.207031 472.015625 683.894531 471.183594 684.726562 Z M 370.296875 494.523438 C 369.582031 493.234375 368.835938 491.886719 368.089844 490.535156 C 367.402344 491.226562 366.054688 492.058594 366.167969 492.574219 C 366.484375 494.039062 367.429688 495.355469 368.117188 496.734375 C 368.804688 496.046875 369.496094 495.355469 370.296875 494.523438 Z M 469.375 443.195312 C 468.542969 442.363281 467.855469 441.671875 467.167969 440.984375 C 466.480469 442.363281 465.5625 443.683594 465.21875 445.144531 C 465.101562 445.660156 466.480469 446.492188 467.167969 447.183594 C 467.941406 445.832031 468.6875 444.515625 469.375 443.195312 Z M 448.609375 416.222656 C 447.917969 416.910156 446.570312 417.742188 446.65625 418.261719 C 446.972656 419.722656 447.890625 421.042969 448.578125 422.421875 C 449.269531 421.730469 450.617188 420.898438 450.53125 420.382812 C 450.214844 418.921875 449.296875 417.601562 448.609375 416.222656 Z M 436.214844 385.265625 C 435.527344 385.953125 434.179688 386.785156 434.265625 387.300781 C 434.582031 388.765625 435.527344 390.085938 436.214844 391.460938 C 436.90625 390.773438 438.253906 389.941406 438.167969 389.425781 C 437.824219 387.960938 436.90625 386.640625 436.214844 385.265625 Z M 615.8125 267.59375 C 615.125 268.285156 613.777344 269.117188 613.890625 269.632812 C 614.207031 271.097656 615.125 272.414062 615.8125 273.792969 C 616.5 273.105469 617.851562 272.273438 617.765625 271.753906 C 617.417969 270.292969 616.5 268.972656 615.8125 267.59375 Z M 860.410156 245.933594 C 859.722656 245.242188 858.890625 243.894531 858.375 244.011719 C 856.910156 244.324219 855.589844 245.273438 854.214844 245.933594 C 854.902344 246.621094 855.734375 247.96875 856.25 247.855469 C 857.714844 247.539062 859.035156 246.621094 860.410156 245.933594 Z M 832.558594 205.675781 C 831.867188 206.367188 830.519531 207.199219 830.636719 207.714844 C 830.949219 209.175781 831.867188 210.496094 832.558594 211.875 C 833.246094 211.1875 834.59375 210.355469 834.480469 209.835938 C 834.164062 208.375 833.246094 207.054688 832.558594 205.675781 Z M 832.558594 205.675781 " fill-opacity="1" fill-rule="nonzero"/><g clip-path="url(#1de2e348bf)"><path fill="#000000" d="M 784.109375 1455.210938 C 713.140625 1458.394531 632.191406 1451.855469 551.1875 1444.164062 C 464.785156 1435.957031 398.324219 1396.9375 346.777344 1327.183594 C 283.296875 1241.308594 249.132812 1143.953125 224.519531 1041.722656 C 207.652344 971.710938 204.011719 900.554688 202.03125 829.195312 C 198.789062 711.613281 198.390625 594.03125 218.238281 477.539062 C 237.257812 365.925781 286.824219 271.667969 380.078125 204.128906 C 441.496094 159.652344 511.515625 134.519531 585.035156 118.050781 C 628.089844 108.410156 672.035156 105.597656 715.664062 101.867188 C 781.84375 96.214844 844.75 76.816406 908.628906 61.410156 C 943.914062 52.917969 979.050781 44.941406 1015.625 43.90625 C 1056.617188 42.761719 1087.28125 56.875 1107.875 94.261719 C 1143.1875 158.363281 1151.132812 227.054688 1147.144531 298.382812 C 1146.429688 311.292969 1138.683594 317.605469 1127.125 321.335938 C 1106.125 328.109375 1084.699219 332.871094 1062.785156 334.648438 C 1005.84375 339.269531 948.933594 344.261719 891.933594 347.445312 C 815.203125 351.75 752.839844 383.65625 702.757812 441.15625 C 630.15625 524.480469 584.746094 620.371094 569.113281 730.003906 C 548.605469 873.667969 630.902344 1037.042969 757.691406 1105.820312 C 790.589844 1123.667969 824.8125 1124.414062 860.039062 1116.808594 C 909.71875 1106.109375 955.929688 1085.824219 1001.683594 1064.332031 C 1045.398438 1043.789062 1089.519531 1024.277344 1136.703125 1012.714844 C 1178.296875 1002.527344 1185.183594 1005.082031 1211.316406 1040.316406 C 1227.0625 1061.578125 1245.476562 1080.542969 1264.726562 1098.53125 C 1300.296875 1131.757812 1307.695312 1170.148438 1290.515625 1215.339844 C 1257.613281 1301.90625 1203.539062 1366.292969 1112.925781 1397.050781 C 964.710938 1447.378906 951.886719 1452.570312 784.109375 1455.210938 Z M 251.082031 743.289062 C 251.714844 854.789062 253.292969 955.757812 277.300781 1054.890625 C 299.015625 1144.46875 332.0625 1228.480469 391.46875 1300.613281 C 427.007812 1343.796875 470.007812 1373.78125 526.171875 1382.246094 C 547.859375 1385.515625 569.714844 1387.898438 591.546875 1390.25 C 673.640625 1399.144531 756.167969 1395.761719 838.4375 1399.117188 C 926.53125 1402.703125 1010.230469 1384.023438 1094.625 1362.449219 C 1178.699219 1340.957031 1222.703125 1283.257812 1251.988281 1208.167969 C 1263.691406 1178.15625 1257.613281 1152.820312 1234.777344 1130.09375 C 1216.132812 1111.503906 1198.433594 1091.875 1181.453125 1071.734375 C 1162.492188 1049.269531 1162.980469 1048.550781 1135.183594 1057.101562 C 1096.257812 1069.066406 1059.3125 1085.851562 1022.796875 1103.667969 C 973.457031 1127.769531 923.257812 1149.460938 869.5625 1162.632812 C 811.617188 1176.835938 758.40625 1168.515625 710.074219 1133.25 C 688.789062 1117.730469 667.359375 1102.175781 647.625 1084.816406 C 543.210938 993.03125 508.960938 872.207031 519.519531 740.019531 C 529.414062 616.183594 586.871094 509.730469 666.84375 415.132812 C 730.09375 340.300781 810.011719 301.453125 907.308594 296.117188 C 970.875 292.617188 1034.386719 287.824219 1097.949219 284.035156 C 1108.046875 283.433594 1114.789062 282 1113.871094 269.460938 C 1110.027344 215.605469 1104.691406 162.0625 1082.117188 112.109375 C 1066.714844 78.023438 1051.308594 70.105469 1014.449219 74.808594 C 983.871094 78.710938 954.007812 85.570312 924.519531 94.40625 C 841.476562 119.339844 758.175781 143.269531 671.175781 150.359375 C 589.050781 157.042969 511.800781 180.027344 439.773438 220.109375 C 370.726562 258.527344 322.710938 315.082031 295.230469 389.136719 C 284.128906 419.0625 275.722656 449.707031 270.074219 481.097656 C 253.835938 571.277344 254.582031 662.605469 251.082031 743.289062 Z M 251.082031 743.289062 " fill-opacity="1" fill-rule="nonzero"/></g></svg>